<?xml version="1.0" standalone="no"?><!DOCTYPE svg PUBLIC "-//W3C//DTD SVG 1.1//EN" "http://www.w3.org/Graphics/SVG/1.1/DTD/svg11.dtd"><svg class="icon" width="200px" height="199.80px" viewBox="0 0 1025 1024" version="1.1" xmlns="http://www.w3.org/2000/svg"><path fill="#515151" d="M1023.210667 395.690667c-2.005333-6.08-7.381333-10.410667-13.781333-10.944l-347.114667-29.802667L526.634667 33.984C524.117333 28.096 518.4 24.256 512 24.256s-12.181333 3.861333-14.677333 9.749333l-135.616 320.938667L14.570667 384.746667c-6.357333 0.533333-11.797333 4.864-13.781333 10.944-1.941333 6.101333-0.106667 12.778667 4.714667 16.96l263.338667 228.138667L189.888 980.16c-1.429333 6.208 1.002667 12.757333 6.122667 16.512 5.205333 3.733333 12.117333 4.010667 17.642667 0.682667L512 817.450667l298.282667 179.946667c2.581333 1.557333 5.418667 2.346667 8.32 2.346667 3.221333 0 6.528-1.002667 9.344-3.008 5.162667-3.84 7.594667-10.368 6.122667-16.576l-62.442667-268.352c26.730667-13.482667 56.277333-36.245333 56.277333-36.245333s-116.864 57.066667-536.341333 29.205333L595.626667 484.437333c0 0-11.968-18.581333-392.981333-31.872-25.408-0.917333 310.677333-63.722667 558.933333-10.645333L456.298667 660.906667c0 0 122.453333 18.197333 307.328 16.085333l-8.448-36.181333 263.36-228.16C1023.381333 408.469333 1025.216 401.792 1023.210667 395.690667z"  /></svg>